<?xml version="1.0" encoding="UTF-8"?>
<svg id="Laag_1" data-name="Laag 1" xmlns="http://www.w3.org/2000/svg" xmlns:xlink="http://www.w3.org/1999/xlink" viewBox="0 0 22 22">
  <defs>
    <style>
      .cls-1 {
        stroke: url(#Naamloos_verloop_5-2);
        stroke-miterlimit: 10;
        stroke-width: 29px;
      }

      .cls-1, .cls-2 {
        fill: #000;
        opacity: 0;
      }

      .cls-2, .cls-3 {
        stroke-width: 0px;
      }

      .cls-3 {
        fill: url(#Naamloos_verloop_5);
      }
    </style>
    <linearGradient id="Naamloos_verloop_5" data-name="Naamloos verloop 5" x1="2.39" y1="10.88" x2="19.3" y2="10.88" gradientUnits="userSpaceOnUse">
      <stop offset="0" stop-color="#e41b1f"/>
      <stop offset=".13" stop-color="#de1a1e"/>
      <stop offset=".3" stop-color="#ce1a1b"/>
      <stop offset=".49" stop-color="#b31918"/>
      <stop offset=".64" stop-color="#9b1915"/>
    </linearGradient>
    <linearGradient id="Naamloos_verloop_5-2" data-name="Naamloos verloop 5" x1="-19.71" y1="10.99" x2="41.06" y2="10.99" xlink:href="#Naamloos_verloop_5"/>
  </defs>
  <g>
    <path class="cls-3" d="M11.78,6.2l-7.88,5.15-1.5-1.05L4.54,1.13l1.34.94c.14.1.24.22.28.35s.05.26.02.4l-1.3,4.8c-.05.21-.12.44-.19.68-.08.24-.16.49-.26.75.2-.18.39-.36.59-.51.2-.16.39-.3.57-.42l4.06-2.87c.1-.07.22-.1.37-.11.15,0,.29.04.42.13l1.35.94Z"/>
    <path class="cls-3" d="M7.67,13.91c-.1.06-.2.11-.3.14-.11.03-.21.04-.31.04-.1,0-.2-.02-.3-.05-.1-.03-.18-.08-.26-.13l-.65-.45,7.92-5.37c.18-.12.37-.18.57-.17.2,0,.38.07.56.19l.65.45-7.87,5.36Z"/>
    <path class="cls-3" d="M17.16,20.64l2.14-9.17-1.5-1.05-7.88,5.15,1.34.94c.14.1.28.15.42.14s.26-.04.38-.12l4.07-2.86c.18-.12.37-.26.58-.41.2-.15.41-.32.61-.5-.11.25-.2.49-.28.73-.08.24-.15.46-.2.68l-1.31,4.8c-.03.12-.02.24.02.38.04.14.13.26.27.35l1.35.94Z"/>
  </g>
  <g>
    <path class="cls-2" d="M11.78,6.2l-7.88,5.15-1.5-1.05L4.54,1.13l1.34.94c.14.1.24.22.28.35s.05.26.02.4l-1.3,4.8c-.05.21-.12.44-.19.68-.08.24-.16.49-.26.75.2-.18.39-.36.59-.51.2-.16.39-.3.57-.42l4.06-2.87c.1-.07.22-.1.37-.11.15,0,.29.04.42.13l1.35.94Z"/>
    <path class="cls-1" d="M7.67,13.91c-.1.06-.2.11-.3.14-.11.03-.21.04-.31.04-.1,0-.2-.02-.3-.05-.1-.03-.18-.08-.26-.13l-.65-.45,7.92-5.37c.18-.12.37-.18.57-.17.2,0,.38.07.56.19l.65.45-7.87,5.36Z"/>
    <path class="cls-2" d="M17.16,20.64l2.14-9.17-1.5-1.05-7.88,5.15,1.34.94c.14.1.28.15.42.14s.26-.04.38-.12l4.07-2.86c.18-.12.37-.26.58-.41.2-.15.41-.32.61-.5-.11.25-.2.49-.28.73-.08.24-.15.46-.2.68l-1.31,4.8c-.03.12-.02.24.02.38.04.14.13.26.27.35l1.35.94Z"/>
  </g>
</svg>